<?xml version="1.0" encoding="UTF-8"?>
<svg xmlns="http://www.w3.org/2000/svg" version="1.1" xmlns:xlink="http://www.w3.org/1999/xlink" viewBox="0 0 1440 471.83">
  <!-- Generator: Adobe Illustrator 29.8.2, SVG Export Plug-In . SVG Version: 2.1.1 Build 3)  -->
  <defs>
    <style>
      .st0 {
        opacity: .5;
      }

      .st0, .st1, .st2 {
        fill: #7acdf3;
      }

      .st0, .st1, .st3 {
        isolation: isolate;
      }

      .st1 {
        mix-blend-mode: overlay;
      }

      .st4 {
        fill: #231f20;
      }

      .st5 {
        fill: url(#linear-gradient);
      }
    </style>
    <linearGradient id="linear-gradient" x1="280.99" y1="48.53" x2="280.99" y2="423.54" gradientTransform="translate(0 473.06) scale(1 -1)" gradientUnits="userSpaceOnUse">
      <stop offset="0" stop-color="#0e7ec0"/>
      <stop offset="1" stop-color="#2b328c"/>
    </linearGradient>
  </defs>
  <g class="st3">
    <g id="Layer_1">
      <g>
        <g>
          <path class="st4" d="M636.86,154.99h-48.09v76.94h-41.68v-76.94h-48.09v-35.26h137.85v35.26h.01Z"/>
          <path class="st4" d="M683.35,151.78v10.42h76.94v27.25h-76.94v10.42h76.94v32.06h-118.62v-112.21h118.62v32.06h-76.94Z"/>
          <path class="st4" d="M834.02,118.12c44.88,0,68.29,15.71,70.05,51.13h-42.64c-1.6-10.58-9.78-15.87-27.41-15.87-24.68,0-28.85,10.42-28.85,22.28s4.33,22.6,28.85,22.6c17.63,0,25.81-5.45,27.41-16.19h42.64c-1.76,35.58-25.01,51.45-70.05,51.45-49.37,0-70.53-18.75-70.53-57.87s21.16-57.55,70.53-57.55v.02Z"/>
          <path class="st4" d="M1057.95,119.72v112.21h-41.68v-38.47h-65.72v38.47h-41.68v-112.21h41.68v38.47h65.72v-38.47h41.68Z"/>
          <path class="st4" d="M1208.95,119.72v112.21h-54.5l-48.41-66.2v66.2h-41.68v-112.21h54.5l48.41,66.2v-66.2h41.68Z"/>
          <path class="st4" d="M1212.15,175.67c0-38.95,21.16-57.55,70.53-57.55s70.53,18.75,70.53,57.55-21.32,57.87-70.53,57.87-70.53-18.75-70.53-57.87ZM1311.54,175.67c0-11.7-4.17-22.28-28.85-22.28s-28.85,10.42-28.85,22.28,4.33,22.6,28.85,22.6,28.85-10.74,28.85-22.6Z"/>
          <path class="st4" d="M636.86,302.95h-48.09v76.94h-41.68v-76.94h-48.09v-35.26h137.85v35.26h.01Z"/>
          <path class="st4" d="M683.35,299.75v10.42h76.94v27.25h-76.94v10.42h76.94v32.06h-118.62v-112.21h118.62v32.06h-76.94Z"/>
          <path class="st4" d="M805.17,340.3c0,5.45,5.13,9.14,31.58,9.14,24.68,0,28.37-1.6,28.37-5.77,0-4.81-3.69-5.45-29.98-6.25-50.65-1.6-70.05-9.94-70.05-36.07,0-24.69,24.2-35.26,68.45-35.26s68.45,10.58,68.45,39.27h-41.68c0-5.93-9.62-7.21-29.97-7.21s-23.56.96-23.56,5.29,4.01,4.17,28.37,5.13c44.24,1.76,71.65,4.81,71.65,34.14,0,30.94-25.65,38.79-71.65,38.79s-71.65-7.85-71.65-41.2h41.68-.01Z"/>
          <path class="st4" d="M1044.65,302.95h-48.09v76.94h-41.68v-76.94h-48.09v-35.26h137.85v35.26h.01Z"/>
          <path class="st4" d="M1071.9,351.04v28.85h-38.47v-28.85h38.47Z"/>
          <path class="st4" d="M1148.84,381.5c-49.37,0-70.53-18.75-70.53-57.87v-55.94h41.68v55.94c0,12.02,4.33,22.6,28.85,22.6s28.85-10.74,28.85-22.6v-55.94h41.68v55.94c0,38.95-21.32,57.87-70.53,57.87Z"/>
          <path class="st4" d="M1352.42,302.95l-67.32,41.68h67.32v35.26h-126.63v-35.26l67.32-41.68h-67.32v-35.26h126.63v35.26Z"/>
        </g>
        <g>
          <rect class="st5" x="86.79" y="49.03" width="388.39" height="375.01" rx="54.38" ry="54.38"/>
          <g>
            <g>
              <path class="st2" d="M437.42,114.89v35.06c0,.6-.02,1.2-.05,1.8-.46,8.3-3.87,16.34-9.61,22.38-5.62,5.9-13.85,10.25-22.09,10.71-.03,0-.08.02-.12.02-.47.05-.92.08-1.39.1-.6.03-1.2.05-1.8.05h-119.01c-5.01,0-9.53,2.02-12.8,5.29-3.29,3.29-5.31,7.81-5.31,12.8v155.08c0,9.68,3.92,18.45,10.27,24.79,6.34,6.34,15.11,10.27,24.79,10.27h-35.06c-1.22,0-2.4-.07-3.59-.18-2.09-.22-4.11-.6-6.08-1.17-.37-.08-.73-.2-1.1-.33-.1-.03-.18-.07-.28-.1-.42-.12-.83-.27-1.25-.43-.45-.17-.88-.33-1.32-.52-6.36-2.69-12.33-7.04-15.88-12.98-5.73-9.6-5.56-25.36-5.56-37.76v-154.76c0-10.92,6.56-23.64,16.24-29.4,11.57-6.89,25.84-5.66,38.75-5.66h117.18c9.68,0,18.45-3.92,24.79-10.27,6.34-6.34,10.27-15.12,10.27-24.79h0Z"/>
              <path class="st2" d="M370.41,203.1c-9.68,0-18.45,3.92-24.79,10.27-6.34,6.34-10.27,15.11-10.27,24.79v120.06c0,.58-.02,1.17-.05,1.74v.13c-.3,8.02-3.82,16.01-9.24,21.88-5.96,6.46-14.32,10.48-23.08,11.18-.4.03-.82.05-1.22.08h-.38c-.18,0-.35.02-.53.02h-.55c-9.68,0-18.45-3.92-24.79-10.27-6.34-6.34-10.27-15.11-10.27-24.79v-18.1c0,4.99,2.02,9.52,5.31,12.8,3.14,3.14,7.45,5.12,12.22,5.28-.2.02-.38.02-.58.02h1.17c-.08,0-.15,0-.23-.02,4.64-.23,8.8-2.2,11.87-5.28,3.29-3.29,5.31-7.81,5.31-12.8v-101.93c0-9.67,3.92-18.45,10.27-24.79,6.34-6.34,15.11-10.27,24.79-10.27h35.06-.02Z"/>
              <path class="st1" d="M370.41,203.09c-9.68,0-18.44,3.93-24.78,10.27s-10.27,15.11-10.27,24.8v120.05c0,.59-.01,1.17-.05,1.74v.13c-.29,8.02-3.82,16.01-9.24,21.88-5.95,6.46-14.32,10.48-23.08,11.17-.4.03-.81.05-1.21.08h-.39c-.19,0-.35.01-.53.01h-.56c-.71,0-1.41-.03-2.1-.07.16,0,.31-.01.47-.03,8.76-.69,17.13-4.74,23.08-11.25,5.42-5.9,8.95-13.93,9.24-22v-.13c.04-.57.05-1.17.05-1.76v-120.79c0-9.75,3.92-18.56,10.27-24.94,4.31-4.35,9.75-7.56,15.83-9.18h13.28v.02Z"/>
              <path class="st2" d="M437.43,114.4c.13,9.85-3.82,18.83-10.27,25.27s-15.11,10.27-24.79,10.27h-18.11c5.01,0,9.53-2.04,12.8-5.31,3.09-3.07,5.06-7.25,5.29-11.87.02.08.02.15.02.22v-1.15c0,.2,0,.38-.02.58-.13-4.76-2.12-9.06-5.29-12.24-3.27-3.27-7.8-5.29-12.8-5.29h-206.48c-5.01,0-9.53,2.02-12.8,5.29-3.26,3.26-4.9,7.91-5.36,12.39,0-.2-.02-.38-.02-.58v1.12c.2,1.47.35,2.94.83,4.36,2.45,7.19,9.44,12.33,17.08,12.65,8.56.62,16.57,4.08,22.67,10.17,6.31,6.31,10.23,15.04,10.27,24.67v35.11c0-9.68-3.92-18.45-10.27-24.79s-15.11-10.27-24.79-10.27h-15.73c-.6,0-1.2-.02-1.8-.05-16.52-.58-30.45-13.58-32.87-29.81-.7-4.51-.38-9.26-.38-13.82v-26.43c0-2.84.33-5.61.98-8.25.07-.27.13-.53.2-.8,3.97-14.97,17.63-26.01,33.87-26.01h241.74c19.33,0,35.76,15.24,36.02,34.57h0Z"/>
              <g>
                <path class="st1" d="M200.17,160.26c6.31,6.31,10.24,15.05,10.27,24.68v35.1c0-6.82-1.94-13.18-5.33-18.56v-16.54c-.03-9.63-3.96-18.36-10.27-24.68s-14.4-6.79-22.96-7.4c-12.13-.88-20.32-14.72-16.38-25.91.88-2.52,2.24-4.87,4.13-6.78,3.28-3.26,7.8-5.29,12.81-5.29h5.33c-5.01,0-9.53,2.02-12.81,5.29-3.25,3.26-4.9,7.91-5.35,12.4,0-.2,0-.39,0-.59v1.12c.2,1.46.35,2.93.84,4.35,2.45,7.19,9.43,12.32,17.07,12.65,8.56.61,16.58,4.08,22.67,10.16h-.01Z"/>
                <path class="st1" d="M437.43,114.4c.13,9.84-3.82,18.83-10.27,25.28-6.35,6.34-15.11,10.27-24.8,10.27h-5.33c9.68,0,18.44-3.93,24.8-10.27,6.45-6.45,10.4-15.43,10.27-25.28-.27-19.34-16.7-30.86-36.02-30.86h-241.74c-4.97,0-9.69.68-13.97,2.06,5.53-3.65,12.16-5.78,19.3-5.78h241.74c19.32,0,35.76,15.23,36.02,34.57h0Z"/>
              </g>
            </g>
            <path class="st0" d="M275.51,382.96c6.34,6.35,15.1,10.27,24.8,10.27h-16.43c-3.1-1.62-5.91-3.73-8.36-6.18-6.34-6.35-10.27-15.11-10.27-24.8v-4.08c0,9.68,3.93,18.44,10.27,24.78h-.01Z"/>
            <path class="st0" d="M437.42,114.89v4.08c0,9.67-3.92,18.44-10.27,24.78-6.34,6.35-15.1,10.27-24.78,10.27h-117.19c-12.9,0-27.18-1.23-38.75,5.66-9.68,5.77-16.23,18.48-16.23,29.4v-4.08c0-10.93,6.55-23.64,16.23-29.4,11.57-6.88,25.85-5.66,38.75-5.66h117.19c9.68,0,18.44-3.92,24.78-10.27,6.35-6.34,10.27-15.13,10.27-24.78Z"/>
          </g>
        </g>
      </g>
    </g>
  </g>
</svg>